<mxfile host="app.diagrams.net" agent="Mozilla/5.0 (Windows NT 10.0; Win64; x64) AppleWebKit/537.36 (KHTML, like Gecko) Chrome/134.0.0.0 YaBrowser/25.4.0.0 Safari/537.36" version="27.0.9">
  <diagram name="Page-1" id="nnE1x4aiKlqgYAefy3Uk">
    <mxGraphModel dx="1572" dy="2093" grid="1" gridSize="10" guides="1" tooltips="1" connect="1" arrows="1" fold="1" page="1" pageScale="1" pageWidth="827" pageHeight="1169" background="light-dark(#FFFFFF,#F4F4F4)" math="0" shadow="0">
      <root>
        <mxCell id="0" />
        <mxCell id="1" parent="0" />
        <mxCell id="ZyWLl56cLD8XWaH752cC-1" value="" style="strokeWidth=2;html=1;shape=mxgraph.flowchart.terminator;whiteSpace=wrap;fillColor=light-dark(#FFFFFF,#FEFEFE);strokeColor=light-dark(#000000,#000000);fontColor=light-dark(#000000,#010101);" vertex="1" parent="1">
          <mxGeometry x="320" y="-80" width="240" height="120" as="geometry" />
        </mxCell>
        <mxCell id="ZyWLl56cLD8XWaH752cC-2" value="&lt;font style=&quot;font-size: 20px;&quot;&gt;Начало&lt;/font&gt;" style="text;html=1;align=center;verticalAlign=middle;resizable=0;points=[];autosize=1;strokeColor=none;fillColor=none;fontColor=light-dark(#000000,#010101);" vertex="1" parent="1">
          <mxGeometry x="385" y="-30" width="90" height="40" as="geometry" />
        </mxCell>
        <mxCell id="ZyWLl56cLD8XWaH752cC-3" value="" style="endArrow=classic;html=1;rounded=0;strokeColor=light-dark(#000000,#000000);entryX=0.5;entryY=0;entryDx=0;entryDy=0;" edge="1" parent="1" target="ZyWLl56cLD8XWaH752cC-4">
          <mxGeometry width="50" height="50" relative="1" as="geometry">
            <mxPoint x="440" y="230" as="sourcePoint" />
            <mxPoint x="440" y="310" as="targetPoint" />
            <Array as="points">
              <mxPoint x="440" y="260" />
            </Array>
          </mxGeometry>
        </mxCell>
        <mxCell id="ZyWLl56cLD8XWaH752cC-4" value="&lt;font style=&quot;color: light-dark(rgb(0, 0, 0), rgb(0, 0, 0)); font-size: 20px;&quot;&gt;Параметры нормализации и алгоритм предобработки&lt;/font&gt;" style="rounded=0;whiteSpace=wrap;html=1;fillColor=light-dark(#FFFFFF,#FBFBFB);strokeColor=light-dark(#000000,#000000);strokeWidth=2;" vertex="1" parent="1">
          <mxGeometry x="320" y="290" width="240" height="120" as="geometry" />
        </mxCell>
        <mxCell id="ZyWLl56cLD8XWaH752cC-8" value="" style="edgeStyle=orthogonalEdgeStyle;rounded=0;orthogonalLoop=1;jettySize=auto;html=1;" edge="1" parent="1" source="ZyWLl56cLD8XWaH752cC-5" target="ZyWLl56cLD8XWaH752cC-7">
          <mxGeometry relative="1" as="geometry" />
        </mxCell>
        <mxCell id="ZyWLl56cLD8XWaH752cC-5" value="&lt;font style=&quot;color: light-dark(rgb(0, 0, 0), rgb(0, 0, 0)); font-size: 20px;&quot;&gt;Применить выбранные методы обработки с помощью ПО (OpenCV, PIL)&lt;/font&gt;" style="rounded=0;whiteSpace=wrap;html=1;fillColor=light-dark(#FFFFFF,#FBFBFB);strokeColor=light-dark(#000000,#000000);strokeWidth=2;" vertex="1" parent="1">
          <mxGeometry x="320" y="470" width="240" height="120" as="geometry" />
        </mxCell>
        <mxCell id="ZyWLl56cLD8XWaH752cC-6" value="" style="endArrow=classic;html=1;rounded=0;strokeColor=light-dark(#000000,#000000);entryX=0.5;entryY=0;entryDx=0;entryDy=0;" edge="1" parent="1">
          <mxGeometry width="50" height="50" relative="1" as="geometry">
            <mxPoint x="439.5" y="410" as="sourcePoint" />
            <mxPoint x="439.5" y="470" as="targetPoint" />
          </mxGeometry>
        </mxCell>
        <mxCell id="ZyWLl56cLD8XWaH752cC-7" value="&lt;font style=&quot;color: light-dark(rgb(0, 0, 0), rgb(0, 0, 0)); font-size: 24px;&quot;&gt;Получить предобработанное изображение&lt;/font&gt;" style="rounded=0;whiteSpace=wrap;html=1;fillColor=light-dark(#FFFFFF,#FBFBFB);strokeColor=light-dark(#000000,#000000);strokeWidth=2;" vertex="1" parent="1">
          <mxGeometry x="320" y="650" width="240" height="120" as="geometry" />
        </mxCell>
        <mxCell id="ZyWLl56cLD8XWaH752cC-9" value="" style="endArrow=classic;html=1;rounded=0;strokeColor=light-dark(#000000,#000000);entryX=0.5;entryY=0;entryDx=0;entryDy=0;" edge="1" parent="1">
          <mxGeometry width="50" height="50" relative="1" as="geometry">
            <mxPoint x="439.5" y="590" as="sourcePoint" />
            <mxPoint x="439.5" y="650" as="targetPoint" />
          </mxGeometry>
        </mxCell>
        <mxCell id="ZyWLl56cLD8XWaH752cC-14" value="" style="endArrow=classic;html=1;rounded=0;strokeColor=light-dark(#000000,#000000);entryX=0.5;entryY=0;entryDx=0;entryDy=0;" edge="1" parent="1">
          <mxGeometry width="50" height="50" relative="1" as="geometry">
            <mxPoint x="429.5" y="770" as="sourcePoint" />
            <mxPoint x="429.5" y="830" as="targetPoint" />
          </mxGeometry>
        </mxCell>
        <mxCell id="ZyWLl56cLD8XWaH752cC-15" value="&lt;font style=&quot;color: light-dark(rgb(0, 0, 0), rgb(3, 3, 3));&quot;&gt;&lt;span style=&quot;font-size: 24px;&quot;&gt;Конец&lt;/span&gt;&lt;/font&gt;" style="strokeWidth=2;html=1;shape=mxgraph.flowchart.terminator;whiteSpace=wrap;fillColor=light-dark(#FFFFFF,#FEFEFE);strokeColor=light-dark(#000000,#000000);fontColor=light-dark(#000000,#010101);" vertex="1" parent="1">
          <mxGeometry x="320" y="830" width="240" height="120" as="geometry" />
        </mxCell>
        <mxCell id="ZyWLl56cLD8XWaH752cC-17" value="" style="edgeStyle=orthogonalEdgeStyle;rounded=0;orthogonalLoop=1;jettySize=auto;html=1;" edge="1" parent="1" source="ZyWLl56cLD8XWaH752cC-16" target="ZyWLl56cLD8XWaH752cC-2">
          <mxGeometry relative="1" as="geometry" />
        </mxCell>
        <mxCell id="ZyWLl56cLD8XWaH752cC-16" value="&lt;font style=&quot;color: light-dark(rgb(0, 0, 0), rgb(0, 0, 0)); font-size: 20px;&quot;&gt;Загрузить исходное изображение&lt;/font&gt;" style="rounded=0;whiteSpace=wrap;html=1;fillColor=light-dark(#FFFFFF,#FBFBFB);strokeColor=light-dark(#000000,#000000);strokeWidth=2;" vertex="1" parent="1">
          <mxGeometry x="320" y="110" width="240" height="120" as="geometry" />
        </mxCell>
        <mxCell id="ZyWLl56cLD8XWaH752cC-18" value="" style="endArrow=classic;html=1;rounded=0;strokeColor=light-dark(#000000,#000000);entryX=0.5;entryY=0;entryDx=0;entryDy=0;" edge="1" parent="1">
          <mxGeometry width="50" height="50" relative="1" as="geometry">
            <mxPoint x="439" y="50" as="sourcePoint" />
            <mxPoint x="439" y="110" as="targetPoint" />
            <Array as="points">
              <mxPoint x="439" y="80" />
            </Array>
          </mxGeometry>
        </mxCell>
      </root>
    </mxGraphModel>
  </diagram>
</mxfile>
